# xmcd
#
# Track frame offsets:
#	150
#	14725
#	30606
#	43454
#	56875
#	76945
#	89304
#	106287
#	120210
#	132600
#	149580
#	158245
#	168681
#
# Disc length: 2475 seconds
#
# Revision: 1
# Processed by: cddbd v1.5.2PL0 Copyright (c) Steve Scherf et al.
# Submitted via: audiograbber 1.83.01
#
DISCID=ba09a90d
DTITLE=Keeter Stuart - Ghost Riders, Sercheers and Cowpokes
DYEAR=2008
DGENRE=Country
TTITLE0=Cottonwood Tree
TTITLE1=Cowpoke
TTITLE2=Hanna Lee
TTITLE3=The Searchers
TTITLE4=Ghost Riders In The Sky
TTITLE5=Wedding Day
TTITLE6=The Lilies Grow High
TTITLE7=El Diablo
TTITLE8=Buffalo
TTITLE9=The Hunters Return
TTITLE10=Wringle Wrangle
TTITLE11=Borro Lullabye
TTITLE12=Cowpoke
EXTD=
EXTT0=
EXTT1=
EXTT2=
EXTT3=
EXTT4=
EXTT5=
EXTT6=
EXTT7=
EXTT8=
EXTT9=
EXTT10=
EXTT11=
EXTT12=
PLAYORDER=
